<svg xmlns="http://www.w3.org/2000/svg" xmlns:xlink="http://www.w3.org/1999/xlink" width="2454" zoomAndPan="magnify" viewBox="0 0 1840.5 1514.999938" height="2020" preserveAspectRatio="xMidYMid meet" version="1.0"><defs><g/><clipPath id="a98b9bd853"><path d="M 0 0.207031 L 1840 0.207031 L 1840 1514.792969 L 0 1514.792969 Z M 0 0.207031 " clip-rule="nonzero"/></clipPath></defs><g clip-path="url(#a98b9bd853)"><path fill="#ffffff" d="M 0 0.207031 L 1840.5 0.207031 L 1840.5 1522.707031 L 0 1522.707031 Z M 0 0.207031 " fill-opacity="1" fill-rule="nonzero"/><path fill="#ffffff" d="M 0 0.207031 L 1840.5 0.207031 L 1840.5 1515.207031 L 0 1515.207031 Z M 0 0.207031 " fill-opacity="1" fill-rule="nonzero"/><path fill="#ffffff" d="M 0 0.207031 L 1840.5 0.207031 L 1840.5 1515.207031 L 0 1515.207031 Z M 0 0.207031 " fill-opacity="1" fill-rule="nonzero"/></g><g fill="#000000" fill-opacity="1"><g transform="translate(487.339482, 1214.927369)"><g><path d="M 62.71875 -786.5 L 62.71875 20.070312 C 62.71875 144.253906 0 223.28125 -124.183594 223.28125 L -124.183594 243.351562 C 23.832031 243.351562 107.878906 140.492188 107.878906 20.070312 L 107.878906 -786.5 Z M 62.71875 -786.5 "/></g></g></g><g fill="#000000" fill-opacity="1"><g transform="translate(752.265516, 834.21365)"><g><path d="M 60.210938 2.507812 L 104.113281 2.507812 L 104.113281 -786.5 L 60.210938 -786.5 Z M 193.175781 -421.472656 L 548.167969 -786.5 L 519.316406 -786.5 L 148.015625 -405.167969 L 495.480469 2.507812 L 555.691406 2.507812 Z M 193.175781 -421.472656 "/></g></g></g></svg>