<svg xmlns="http://www.w3.org/2000/svg" xmlns:xlink="http://www.w3.org/1999/xlink" width="2020" zoomAndPan="magnify" viewBox="0 0 1515 1514.999938" height="2020" preserveAspectRatio="xMidYMid meet" version="1.0"><defs><clipPath id="e1b4bfabb5"><path d="M 41.265625 64.28125 L 1472 64.28125 L 1472 1451.03125 L 41.265625 1451.03125 Z M 41.265625 64.28125 " clip-rule="nonzero"/></clipPath></defs><rect x="-151.5" width="1818" fill="#ffffff" y="-151.499994" height="1817.999926" fill-opacity="1"/><rect x="-151.5" width="1818" fill="#ffffff" y="-151.499994" height="1817.999926" fill-opacity="1"/><rect x="-151.5" width="1818" fill="#ffffff" y="-151.499994" height="1817.999926" fill-opacity="1"/><g clip-path="url(#e1b4bfabb5)"><path fill="#bf6565" d="M 834.417969 113.035156 C 820.066406 83.242188 789.738281 64.28125 756.429688 64.28125 C 723.125 64.28125 693.066406 83.242188 678.441406 113.035156 L 504.320312 471.367188 L 115.460938 528.789062 C 82.964844 533.664062 55.886719 556.414062 45.867188 587.5625 C 35.847656 618.710938 43.972656 653.109375 67.261719 676.128906 L 349.429688 955.375 L 282.8125 1350.003906 C 277.398438 1382.503906 290.9375 1415.546875 317.746094 1434.777344 C 344.554688 1454.007812 380.027344 1456.445312 409.273438 1441.007812 L 756.703125 1255.476562 L 1104.128906 1441.007812 C 1133.375 1456.445312 1168.851562 1454.28125 1195.660156 1434.777344 C 1222.46875 1415.277344 1236.007812 1382.503906 1230.589844 1350.003906 L 1163.707031 955.375 L 1445.871094 676.128906 C 1469.160156 653.109375 1477.554688 618.710938 1467.265625 587.5625 C 1456.976562 556.414062 1430.167969 533.664062 1397.671875 528.789062 L 1008.539062 471.367188 Z M 834.417969 113.035156 " fill-opacity="1" fill-rule="nonzero"/></g></svg>