<svg xmlns="http://www.w3.org/2000/svg" xmlns:xlink="http://www.w3.org/1999/xlink" width="2020" zoomAndPan="magnify" viewBox="0 0 1515 1514.999938" height="2020" preserveAspectRatio="xMidYMid meet" version="1.0"><defs><clipPath id="f5807b9799"><path d="M 44.601562 68.863281 L 1465 68.863281 L 1465 1445.863281 L 44.601562 1445.863281 Z M 44.601562 68.863281 " clip-rule="nonzero"/></clipPath></defs><rect x="-151.5" width="1818" fill="#ffffff" y="-151.499994" height="1817.999926" fill-opacity="1"/><rect x="-151.5" width="1818" fill="#ffffff" y="-151.499994" height="1817.999926" fill-opacity="1"/><g clip-path="url(#f5807b9799)"><path fill="#bf6565" d="M 754.386719 68.222656 C 779.148438 68.222656 801.753906 82.351562 812.519531 104.605469 L 997.152344 484.777344 L 1409.742188 545.859375 C 1433.964844 549.359375 1453.882812 566.308594 1461.6875 589.453125 C 1469.222656 612.863281 1463.03125 638.425781 1445.808594 655.378906 L 1146.523438 951.917969 L 1217.308594 1370.351562 C 1221.34375 1394.570312 1211.386719 1419.328125 1191.199219 1433.589844 C 1171.285156 1447.851562 1142.488281 1449.734375 1123.109375 1438.164062 L 754.386719 1241.1875 L 383.511719 1438.164062 C 364.132812 1449.734375 337.757812 1447.851562 317.570312 1433.589844 C 297.652344 1419.328125 287.695312 1394.570312 289.3125 1370.351562 L 362.246094 951.917969 L 63.261719 655.378906 C 45.875 638.425781 39.710938 612.863281 47.355469 589.453125 C 54.972656 566.308594 75.074219 549.359375 99.273438 545.859375 L 511.621094 484.777344 L 696.25 104.605469 C 707.285156 82.347656 729.625 68.222656 754.386719 68.222656 Z M 754.386719 280.671875 L 613.085938 571.960938 C 603.667969 591.066406 585.367188 604.519531 564.371094 607.75 L 245.925781 654.570312 L 477.171875 883.566406 C 491.972656 898.367188 498.703125 919.625 495.203125 940.347656 L 440.835938 1262.179688 L 723.972656 1110.949219 C 743.082031 1100.722656 765.957031 1100.722656 784.796875 1110.949219 L 1067.933594 1262.179688 L 1013.566406 940.347656 C 1010.070312 919.625 1017.066406 898.367188 1031.871094 883.566406 L 1263.0625 654.570312 L 944.667969 607.75 C 923.40625 604.519531 905.105469 591.066406 895.953125 571.960938 Z M 754.386719 280.671875 " fill-opacity="1" fill-rule="nonzero"/></g></svg>